<svg width="1391" height="900" viewBox="0 0 1391 900" fill="none" xmlns="http://www.w3.org/2000/svg">
<mask id="mask0_0_8099" style="mask-type:alpha" maskUnits="userSpaceOnUse" x="0" y="0" width="1391" height="900">
<rect width="1391" height="900" rx="25" fill="url(#paint0_linear_0_8099)"/>
</mask>
<g mask="url(#mask0_0_8099)">
<circle cx="695.256" cy="415.253" r="588.233" fill="url(#paint1_linear_0_8099)" fill-opacity="0.02"/>
<circle cx="695.256" cy="415.253" r="588.233" fill="url(#paint2_linear_0_8099)" fill-opacity="0.29" style="mix-blend-mode:overlay"/>
<circle cx="695.256" cy="415.253" r="588.233" stroke="white" stroke-opacity="0.62" stroke-width="1.02301" style="mix-blend-mode:overlay"/>
<circle cx="695.256" cy="415.253" r="588.233" stroke="white" stroke-opacity="0.08" stroke-width="1.02301"/>
<circle cx="695.256" cy="415.253" r="588.233" stroke="url(#paint3_angular_0_8099)" stroke-width="1.02301"/>
<circle cx="695.256" cy="415.253" r="588.233" stroke="url(#paint4_angular_0_8099)" stroke-width="1.02301"/>
<path d="M1181.19 415.765C1181.19 147.675 963.629 -69.6552 695.256 -69.6552C426.883 -69.6552 209.324 147.675 209.324 415.765C209.324 683.854 426.883 901.185 695.256 901.185C963.629 901.185 1181.19 683.854 1181.19 415.765Z" fill="url(#paint5_linear_0_8099)" fill-opacity="0.03"/>
<path d="M1181.19 415.765C1181.19 147.675 963.629 -69.6552 695.256 -69.6552C426.883 -69.6552 209.324 147.675 209.324 415.765C209.324 683.854 426.883 901.185 695.256 901.185C963.629 901.185 1181.19 683.854 1181.19 415.765Z" stroke="white" stroke-opacity="0.62" stroke-width="1.02301" style="mix-blend-mode:overlay"/>
<path d="M1181.19 415.765C1181.19 147.675 963.629 -69.6552 695.256 -69.6552C426.883 -69.6552 209.324 147.675 209.324 415.765C209.324 683.854 426.883 901.185 695.256 901.185C963.629 901.185 1181.19 683.854 1181.19 415.765Z" stroke="white" stroke-opacity="0.08" stroke-width="1.02301"/>
<path d="M1181.19 415.765C1181.19 147.675 963.629 -69.6552 695.256 -69.6552C426.883 -69.6552 209.324 147.675 209.324 415.765C209.324 683.854 426.883 901.185 695.256 901.185C963.629 901.185 1181.19 683.854 1181.19 415.765Z" stroke="url(#paint6_angular_0_8099)" stroke-width="1.02301"/>
<path d="M1181.19 415.765C1181.19 147.675 963.629 -69.6552 695.256 -69.6552C426.883 -69.6552 209.324 147.675 209.324 415.765C209.324 683.854 426.883 901.185 695.256 901.185C963.629 901.185 1181.19 683.854 1181.19 415.765Z" stroke="url(#paint7_angular_0_8099)" stroke-width="1.02301"/>
<ellipse cx="375.957" cy="375.446" rx="375.957" ry="375.446" transform="matrix(1 0 0 -1 319.301 791.208)" fill="url(#paint8_linear_0_8099)" fill-opacity="0.03"/>
<path d="M1070.7 415.762C1070.7 208.692 902.612 40.8274 695.258 40.8274C487.905 40.8274 319.813 208.692 319.813 415.762C319.813 622.832 487.905 790.696 695.258 790.696C902.612 790.696 1070.7 622.832 1070.7 415.762Z" stroke="white" stroke-opacity="0.62" stroke-width="1.02301" style="mix-blend-mode:overlay"/>
<path d="M1070.7 415.762C1070.7 208.692 902.612 40.8274 695.258 40.8274C487.905 40.8274 319.813 208.692 319.813 415.762C319.813 622.832 487.905 790.696 695.258 790.696C902.612 790.696 1070.7 622.832 1070.7 415.762Z" stroke="white" stroke-opacity="0.08" stroke-width="1.02301"/>
<circle cx="695.348" cy="1054.21" r="659.348" fill="#02040D"/>
<circle cx="695.348" cy="1054.21" r="658.73" stroke="white" stroke-opacity="0.62" stroke-width="1.23589" style="mix-blend-mode:overlay"/>
<circle cx="695.348" cy="1054.21" r="658.73" stroke="white" stroke-opacity="0.08" stroke-width="1.23589"/>
<g opacity="0.89">
<g filter="url(#filter0_f_0_8099)">
<ellipse cx="611.523" cy="323.747" rx="611.523" ry="323.747" transform="matrix(1 0 0.0189271 0.999821 98.9998 497.979)" fill="#206CFF"/>
</g>
</g>
<g style="mix-blend-mode:soft-light" filter="url(#filter1_f_0_8099)">
<ellipse cx="636.535" cy="205.579" rx="636.535" ry="205.579" transform="matrix(0.999979 -0.00645175 0.0221752 0.999754 50.3906 576.32)" fill="white"/>
</g>
<g style="mix-blend-mode:soft-light" filter="url(#filter2_f_0_8099)">
<ellipse cx="636.535" cy="205.579" rx="636.535" ry="205.579" transform="matrix(0.999979 -0.00645175 0.0221752 0.999754 50.3906 576.32)" fill="white"/>
</g>
<g style="mix-blend-mode:soft-light" filter="url(#filter3_f_0_8099)">
<ellipse cx="644.76" cy="205.579" rx="644.76" ry="205.579" transform="matrix(0.999979 -0.00645175 0.0221752 0.999754 50.3906 576.32)" fill="white"/>
</g>
<g style="mix-blend-mode:soft-light" filter="url(#filter4_f_0_8099)">
<ellipse cx="408.684" cy="205.579" rx="408.684" ry="205.579" transform="matrix(0.999979 -0.00645175 0.0221752 0.999754 286.461 544.797)" fill="white"/>
</g>
</g>
<defs>
<filter id="filter0_f_0_8099" x="-193.504" y="199.379" width="1820.31" height="1244.58" filterUnits="userSpaceOnUse" color-interpolation-filters="sRGB">
<feFlood flood-opacity="0" result="BackgroundImageFix"/>
<feBlend mode="normal" in="SourceGraphic" in2="BackgroundImageFix" result="shape"/>
<feGaussianBlur stdDeviation="149.3" result="effect1_foregroundBlur_0_8099"/>
</filter>
<filter id="filter1_f_0_8099" x="-243.667" y="273.572" width="1870.28" height="1008.34" filterUnits="userSpaceOnUse" color-interpolation-filters="sRGB">
<feFlood flood-opacity="0" result="BackgroundImageFix"/>
<feBlend mode="normal" in="SourceGraphic" in2="BackgroundImageFix" result="shape"/>
<feGaussianBlur stdDeviation="149.3" result="effect1_foregroundBlur_0_8099"/>
</filter>
<filter id="filter2_f_0_8099" x="-243.667" y="273.572" width="1870.28" height="1008.34" filterUnits="userSpaceOnUse" color-interpolation-filters="sRGB">
<feFlood flood-opacity="0" result="BackgroundImageFix"/>
<feBlend mode="normal" in="SourceGraphic" in2="BackgroundImageFix" result="shape"/>
<feGaussianBlur stdDeviation="149.3" result="effect1_foregroundBlur_0_8099"/>
</filter>
<filter id="filter3_f_0_8099" x="-243.667" y="273.517" width="1886.73" height="1008.34" filterUnits="userSpaceOnUse" color-interpolation-filters="sRGB">
<feFlood flood-opacity="0" result="BackgroundImageFix"/>
<feBlend mode="normal" in="SourceGraphic" in2="BackgroundImageFix" result="shape"/>
<feGaussianBlur stdDeviation="149.3" result="effect1_foregroundBlur_0_8099"/>
</filter>
<filter id="filter4_f_0_8099" x="195.294" y="446.443" width="1008.8" height="602.491" filterUnits="userSpaceOnUse" color-interpolation-filters="sRGB">
<feFlood flood-opacity="0" result="BackgroundImageFix"/>
<feBlend mode="normal" in="SourceGraphic" in2="BackgroundImageFix" result="shape"/>
<feGaussianBlur stdDeviation="47.85" result="effect1_foregroundBlur_0_8099"/>
</filter>
<linearGradient id="paint0_linear_0_8099" x1="515" y1="-73.4483" x2="886.91" y2="891.75" gradientUnits="userSpaceOnUse">
<stop stop-color="#F2F2F2"/>
<stop offset="1" stop-color="#DFF0EF"/>
</linearGradient>
<linearGradient id="paint1_linear_0_8099" x1="695.256" y1="309.046" x2="695.256" y2="649.155" gradientUnits="userSpaceOnUse">
<stop stop-color="#C0C9FF" stop-opacity="0"/>
<stop offset="1" stop-color="#E9ECFF"/>
<stop offset="1" stop-color="#C0C9FF"/>
</linearGradient>
<linearGradient id="paint2_linear_0_8099" x1="695.256" y1="309.046" x2="695.256" y2="649.155" gradientUnits="userSpaceOnUse">
<stop stop-color="#C0C9FF" stop-opacity="0"/>
<stop offset="1" stop-color="#E9ECFF"/>
<stop offset="1" stop-color="#C0C9FF"/>
</linearGradient>
<radialGradient id="paint3_angular_0_8099" cx="0" cy="0" r="1" gradientUnits="userSpaceOnUse" gradientTransform="translate(695.256 415.253) rotate(-23.1362) scale(592.168)">
<stop stop-color="#A9CBFF"/>
<stop offset="0.045" stop-color="#3787FF" stop-opacity="0"/>
<stop offset="1" stop-opacity="0"/>
</radialGradient>
<radialGradient id="paint4_angular_0_8099" cx="0" cy="0" r="1" gradientUnits="userSpaceOnUse" gradientTransform="translate(695.256 415.253) rotate(166.444) scale(568.357)">
<stop stop-color="#AACCFF"/>
<stop offset="0.045" stop-color="#3787FF" stop-opacity="0"/>
<stop offset="1" stop-opacity="0"/>
</radialGradient>
<linearGradient id="paint5_linear_0_8099" x1="695.256" y1="275.407" x2="695.256" y2="556.122" gradientUnits="userSpaceOnUse">
<stop stop-color="#C0C9FF" stop-opacity="0"/>
<stop offset="1" stop-color="#C0C9FF"/>
</linearGradient>
<radialGradient id="paint6_angular_0_8099" cx="0" cy="0" r="1" gradientUnits="userSpaceOnUse" gradientTransform="translate(695.256 415.765) rotate(13.9155) scale(641.169 640.573)">
<stop stop-color="#A9CBFF"/>
<stop offset="0.045" stop-color="#3787FF" stop-opacity="0"/>
<stop offset="1" stop-opacity="0"/>
</radialGradient>
<radialGradient id="paint7_angular_0_8099" cx="0" cy="0" r="1" gradientUnits="userSpaceOnUse" gradientTransform="translate(695.255 415.765) rotate(-158.832) scale(501.857 501.467)">
<stop stop-color="#AACCFF"/>
<stop offset="0.045" stop-color="#3787FF" stop-opacity="0"/>
<stop offset="1" stop-opacity="0"/>
</radialGradient>
<linearGradient id="paint8_linear_0_8099" x1="375.957" y1="483.891" x2="375.957" y2="267.001" gradientUnits="userSpaceOnUse">
<stop stop-color="#C0C9FF" stop-opacity="0"/>
<stop offset="1" stop-color="#C0C9FF"/>
</linearGradient>
</defs>
</svg>
