<svg width="90" height="30" viewBox="0 0 90 30" fill="none" xmlns="http://www.w3.org/2000/svg">
<path fill-rule="evenodd" clip-rule="evenodd" d="M13.5627 0.0527593C13.2161 -0.0175864 12.8587 -0.0175864 12.5122 0.0527593C12.1116 0.134075 11.7535 0.332008 11.4689 0.489366L11.3913 0.532145L1.74395 5.82199C1.71728 5.83662 1.68979 5.85156 1.66163 5.86687C1.36031 6.03068 0.981435 6.23664 0.690482 6.54826C0.438932 6.81767 0.248566 7.13699 0.132114 7.48485C-0.00257994 7.88721 -0.00100406 8.31412 0.000249192 8.65365C0.000366345 8.68538 0.000480615 8.71635 0.000480615 8.74646V19.1909C0.000480615 19.221 0.000366345 19.252 0.000249192 19.2837C-0.00100406 19.6232 -0.00257994 20.0501 0.132114 20.4525C0.248567 20.8004 0.438934 21.1197 0.690482 21.3891C0.981435 21.7007 1.36031 21.9067 1.66163 22.0705C1.6898 22.0858 1.71728 22.1007 1.74395 22.1154L11.3913 27.4052L11.4689 27.448C11.7535 27.6054 12.1116 27.8033 12.5122 27.8846C12.8587 27.9549 13.2161 27.9549 13.5627 27.8846C13.9633 27.8033 14.3213 27.6054 14.606 27.448L14.6836 27.4052L24.3309 22.1154C24.3427 22.1089 24.3547 22.1024 24.3668 22.0958C24.382 22.0875 24.3975 22.079 24.4132 22.0705C24.7146 21.9067 25.0934 21.7007 25.3844 21.3891C25.6359 21.1197 25.8263 20.8004 25.9428 20.4525C26.0774 20.0501 26.0759 19.6232 26.0746 19.2837C26.0745 19.252 26.0744 19.221 26.0744 19.1909V8.74646C26.0744 8.71635 26.0745 8.68538 26.0746 8.65365C26.0759 8.31412 26.0774 7.88721 25.9428 7.48485C25.8263 7.13699 25.6359 6.81767 25.3844 6.54825C25.0934 6.23664 24.7146 6.03067 24.4132 5.86686L24.4122 5.86628C24.3844 5.85118 24.3573 5.83643 24.3309 5.82199L14.6836 0.532144L14.606 0.489362C14.3213 0.332005 13.9633 0.134075 13.5627 0.0527593ZM12.6576 2.78173C12.8551 2.67341 12.956 2.61867 13.0312 2.58286L13.0374 2.57991L13.0437 2.58286C13.1189 2.61867 13.2197 2.67341 13.4173 2.78173L22.0862 7.53505L13.0374 12.4967L3.98866 7.53508L12.6576 2.78173ZM2.60787 9.72187L11.7337 14.7258L11.7337 24.6491L3.01021 19.8658C2.80168 19.7514 2.69521 19.6924 2.62052 19.6455L2.61421 19.6415L2.61374 19.6341C2.60841 19.5469 2.60787 19.4263 2.60787 19.1909V9.72187Z" fill="#149EFF"/>
<path fill-rule="evenodd" clip-rule="evenodd" d="M13.5627 0.0527593C13.2161 -0.0175864 12.8587 -0.0175864 12.5122 0.0527593C12.1116 0.134075 11.7535 0.332008 11.4689 0.489366L11.3913 0.532145L1.74395 5.82199C1.71728 5.83662 1.68979 5.85156 1.66163 5.86687C1.36031 6.03068 0.981435 6.23664 0.690482 6.54826C0.438932 6.81767 0.248566 7.13699 0.132114 7.48485C-0.00257994 7.88721 -0.00100406 8.31412 0.000249192 8.65365C0.000366345 8.68538 0.000480615 8.71635 0.000480615 8.74646V19.1909C0.000480615 19.221 0.000366345 19.252 0.000249192 19.2837C-0.00100406 19.6232 -0.00257994 20.0501 0.132114 20.4525C0.248567 20.8004 0.438934 21.1197 0.690482 21.3891C0.981435 21.7007 1.36031 21.9067 1.66163 22.0705C1.6898 22.0858 1.71728 22.1007 1.74395 22.1154L11.3913 27.4052L11.4689 27.448C11.7535 27.6054 12.1116 27.8033 12.5122 27.8846C12.8587 27.9549 13.2161 27.9549 13.5627 27.8846C13.9633 27.8033 14.3213 27.6054 14.606 27.448L14.6836 27.4052L24.3309 22.1154C24.3427 22.1089 24.3547 22.1024 24.3668 22.0958C24.382 22.0875 24.3975 22.079 24.4132 22.0705C24.7146 21.9067 25.0934 21.7007 25.3844 21.3891C25.6359 21.1197 25.8263 20.8004 25.9428 20.4525C26.0774 20.0501 26.0759 19.6232 26.0746 19.2837C26.0745 19.252 26.0744 19.221 26.0744 19.1909V8.74646C26.0744 8.71635 26.0745 8.68538 26.0746 8.65365C26.0759 8.31412 26.0774 7.88721 25.9428 7.48485C25.8263 7.13699 25.6359 6.81767 25.3844 6.54825C25.0934 6.23664 24.7146 6.03067 24.4132 5.86686L24.4122 5.86628C24.3844 5.85118 24.3573 5.83643 24.3309 5.82199L14.6836 0.532144L14.606 0.489362C14.3213 0.332005 13.9633 0.134075 13.5627 0.0527593ZM12.6576 2.78173C12.8551 2.67341 12.956 2.61867 13.0312 2.58286L13.0374 2.57991L13.0437 2.58286C13.1189 2.61867 13.2197 2.67341 13.4173 2.78173L22.0862 7.53505L13.0374 12.4967L3.98866 7.53508L12.6576 2.78173ZM2.60787 9.72187L11.7337 14.7258L11.7337 24.6491L3.01021 19.8658C2.80168 19.7514 2.69521 19.6924 2.62052 19.6455L2.61421 19.6415L2.61374 19.6341C2.60841 19.5469 2.60787 19.4263 2.60787 19.1909V9.72187Z" fill="url(#paint0_radial_0_8115)" style="mix-blend-mode:soft-light"/>
<path d="M39.8543 23H37.3072V8.77304H32.0066V6.59311H45.155V8.77304H39.8543V23ZM47.2523 23.3213C44.9117 23.3213 43.4202 21.9674 43.4202 19.971C43.4202 17.3551 45.3936 16.5749 48.3079 16.0242C50.1436 15.68 51.268 15.4505 51.268 14.3032C51.268 13.4542 50.7632 12.7428 49.0422 12.7428C46.9999 12.7428 46.3803 13.3853 46.2656 14.9457H43.9709C44.0857 12.6969 45.5543 10.93 49.1339 10.93C51.5433 10.93 53.4709 11.9397 53.4709 14.9687V20.3382C53.4709 21.1872 53.5856 21.6232 54.0216 21.6232C54.0904 21.6232 54.1593 21.6232 54.2969 21.6003V22.9771C53.9069 23.0688 53.5168 23.1147 53.1496 23.1147C52.0252 23.1147 51.4286 22.6787 51.2909 21.3478H51.245C50.4878 22.564 49.1569 23.3213 47.2523 23.3213ZM47.7571 21.5085C49.7764 21.5085 51.268 20.4759 51.268 18.4336V16.7585C50.9008 17.1027 49.8912 17.3551 48.698 17.6075C46.6327 18.0206 45.7608 18.5942 45.7608 19.8104C45.7608 20.9118 46.3574 21.5085 47.7571 21.5085ZM60.8195 23.3213C57.2628 23.3213 55.4959 21.4855 55.4271 19.0991H57.6988C57.7906 20.4529 58.6167 21.5085 60.7966 21.5085C62.77 21.5085 63.2978 20.6365 63.2978 19.7875C63.2978 18.3189 61.7374 18.1582 60.2229 17.837C58.1807 17.3551 55.8401 16.7585 55.8401 14.3261C55.8401 12.3068 57.4693 10.953 60.2918 10.953C63.5043 10.953 65.0417 12.674 65.2024 14.6933H62.9306C62.77 13.7984 62.2881 12.7658 60.3377 12.7658C58.8232 12.7658 58.1807 13.3624 58.1807 14.2344C58.1807 15.4505 59.4886 15.5653 61.1408 15.9324C63.2978 16.4372 65.6384 17.0568 65.6384 19.6727C65.6384 21.9445 63.8944 23.3213 60.8195 23.3213ZM77.8525 23H75.1906L71.3585 17.0109L69.6605 18.6401V23H67.4117V6.59311H69.6605V16.2537L74.7776 11.2972H77.3706L72.873 15.5882L77.8525 23ZM89.2138 23H86.5519L82.7198 17.0109L81.0218 18.6401V23H78.773V6.59311H81.0218V16.2537L86.1389 11.2972H88.7319L84.2343 15.5882L89.2138 23Z" fill="white"/>
<defs>
<radialGradient id="paint0_radial_0_8115" cx="0" cy="0" r="1" gradientUnits="userSpaceOnUse" gradientTransform="translate(12.9178 31.0415) rotate(-90) scale(14.3567 13.3996)">
<stop stop-color="white"/>
<stop offset="1" stop-color="white" stop-opacity="0"/>
</radialGradient>
</defs>
</svg>
